<svg width="152" height="40" viewBox="0 0 152 40" fill="none" xmlns="http://www.w3.org/2000/svg">
<rect width="152" height="40" fill="#E5E5E5"/>
<g id="&#208;&#147;&#208;&#187;&#208;&#176;&#208;&#178;&#208;&#189;&#208;&#176;&#209;&#143;" clip-path="url(#clip0_0_1)">
<rect width="1600" height="2349" transform="translate(-211 -20)" fill="white"/>
<g id="&#208;&#146;&#208;&#181;&#209;&#128;&#209;&#133;&#208;&#189;&#209;&#143;&#209;&#143; &#208;&#187;&#208;&#184;&#208;&#189;&#208;&#184;&#209;&#143;">
<rect id="top line bg" x="-211" y="-18" width="1600" height="80" fill="white"/>
<g id="WebStudio">
<path d="M12.242 9.592H15.57L17.676 15.702L19.808 9.592H23.11L19.938 17.99L22.278 23.866L27.504 9.54H31.404L24.02 28H20.926L17.676 20.252L14.452 28H11.358L4 9.54H7.848L13.1 23.866L15.388 17.99L12.242 9.592ZM38.227 28.26C37.135 28.26 36.147 28.078 35.263 27.714C34.379 27.3327 33.625 26.8213 33.001 26.18C32.377 25.5213 31.8916 24.776 31.545 23.944C31.2156 23.0947 31.051 22.202 31.051 21.266C31.051 19.966 31.337 18.7787 31.909 17.704C32.4983 16.6293 33.3303 15.7713 34.405 15.13C35.497 14.4713 36.7796 14.142 38.253 14.142C39.7436 14.142 41.0176 14.4713 42.075 15.13C43.1323 15.7713 43.9383 16.6293 44.493 17.704C45.065 18.7613 45.351 19.9053 45.351 21.136C45.351 21.344 45.3423 21.5607 45.325 21.786C45.3076 21.994 45.2903 22.1673 45.273 22.306H34.743C34.8123 22.9993 35.0116 23.606 35.341 24.126C35.6876 24.646 36.121 25.0447 36.641 25.322C37.1783 25.582 37.7503 25.712 38.357 25.712C39.0503 25.712 39.7003 25.5473 40.307 25.218C40.931 24.8713 41.3556 24.4207 41.581 23.866L44.571 24.698C44.2416 25.3913 43.765 26.0067 43.141 26.544C42.5343 27.0813 41.815 27.506 40.983 27.818C40.151 28.1127 39.2323 28.26 38.227 28.26ZM34.665 20.096H41.789C41.7196 19.4027 41.5203 18.8047 41.191 18.302C40.879 17.782 40.463 17.3833 39.943 17.106C39.423 16.8113 38.8423 16.664 38.201 16.664C37.577 16.664 37.005 16.8113 36.485 17.106C35.9823 17.3833 35.5663 17.782 35.237 18.302C34.925 18.8047 34.7343 19.4027 34.665 20.096ZM56.0014 28.26C54.9614 28.26 54.0341 28.026 53.2194 27.558C52.4048 27.09 51.7634 26.4487 51.2954 25.634V28H48.2534V9.02H51.7374V16.768C52.2228 15.9533 52.8554 15.312 53.6354 14.844C54.4328 14.376 55.3601 14.142 56.4174 14.142C57.3014 14.142 58.1074 14.3327 58.8354 14.714C59.5634 15.078 60.1874 15.5893 60.7074 16.248C61.2448 16.9067 61.6521 17.6607 61.9294 18.51C62.2241 19.3593 62.3714 20.2693 62.3714 21.24C62.3714 22.2107 62.2068 23.1207 61.8774 23.97C61.5654 24.8193 61.1234 25.5733 60.5514 26.232C59.9794 26.8733 59.3034 27.376 58.5234 27.74C57.7608 28.0867 56.9201 28.26 56.0014 28.26ZM55.0394 25.296C55.5941 25.296 56.0968 25.192 56.5474 24.984C57.0154 24.7587 57.4141 24.464 57.7434 24.1C58.0901 23.736 58.3501 23.3113 58.5234 22.826C58.7141 22.3233 58.8094 21.8033 58.8094 21.266C58.8094 20.5207 58.6534 19.836 58.3414 19.212C58.0468 18.5707 57.6308 18.0593 57.0934 17.678C56.5734 17.2967 55.9581 17.106 55.2474 17.106C54.7448 17.106 54.2594 17.2273 53.7914 17.47C53.3408 17.6953 52.9334 18.0073 52.5694 18.406C52.2228 18.8047 51.9454 19.2553 51.7374 19.758V23.008C51.8414 23.3547 52.0061 23.6667 52.2314 23.944C52.4741 24.2213 52.7514 24.464 53.0634 24.672C53.3754 24.8627 53.6961 25.0187 54.0254 25.14C54.3721 25.244 54.7101 25.296 55.0394 25.296Z" fill="#2196F3"/>
<path d="M76.8479 14.376C76.7266 14.2547 76.5013 14.09 76.1719 13.882C75.8599 13.674 75.4699 13.4747 75.0019 13.284C74.5513 13.0933 74.0573 12.9287 73.5199 12.79C72.9826 12.634 72.4366 12.556 71.8819 12.556C70.9113 12.556 70.1746 12.738 69.6719 13.102C69.1866 13.466 68.9439 13.9773 68.9439 14.636C68.9439 15.1387 69.0999 15.5373 69.4119 15.832C69.7239 16.1267 70.1919 16.378 70.8159 16.586C71.4399 16.794 72.2199 17.0193 73.1559 17.262C74.3693 17.5567 75.4179 17.9207 76.3019 18.354C77.2033 18.77 77.8879 19.3247 78.3559 20.018C78.8413 20.694 79.0839 21.5953 79.0839 22.722C79.0839 23.71 78.9019 24.5593 78.5379 25.27C78.1739 25.9633 77.6713 26.5267 77.0299 26.96C76.3886 27.3933 75.6606 27.714 74.8459 27.922C74.0313 28.1127 73.1646 28.208 72.2459 28.208C71.3273 28.208 70.4086 28.1127 69.4899 27.922C68.5713 27.7313 67.6873 27.4627 66.8379 27.116C65.9886 26.752 65.2086 26.3187 64.4979 25.816L66.0839 22.722C66.2399 22.878 66.5173 23.086 66.9159 23.346C67.3146 23.5887 67.7999 23.84 68.3719 24.1C68.9439 24.3427 69.5679 24.5507 70.2439 24.724C70.9199 24.8973 71.6046 24.984 72.2979 24.984C73.2686 24.984 74.0053 24.8193 74.5079 24.49C75.0106 24.1607 75.2619 23.6927 75.2619 23.086C75.2619 22.5313 75.0626 22.098 74.6639 21.786C74.2653 21.474 73.7106 21.2053 72.9999 20.98C72.2893 20.7373 71.4486 20.4773 70.4779 20.2C69.3166 19.8707 68.3459 19.5067 67.5659 19.108C66.7859 18.692 66.2053 18.172 65.8239 17.548C65.4426 16.924 65.2519 16.144 65.2519 15.208C65.2519 13.9427 65.5466 12.8853 66.1359 12.036C66.7426 11.1693 67.5573 10.5193 68.5799 10.086C69.6026 9.63533 70.7379 9.41 71.9859 9.41C72.8526 9.41 73.6673 9.50533 74.4299 9.696C75.2099 9.88667 75.9379 10.138 76.6139 10.45C77.2899 10.762 77.8966 11.1 78.4339 11.464L76.8479 14.376ZM90.0966 27.298C89.8019 27.4193 89.4466 27.558 89.0306 27.714C88.6146 27.87 88.1639 27.9913 87.6786 28.078C87.2106 28.182 86.7339 28.234 86.2486 28.234C85.6072 28.234 85.0179 28.1213 84.4806 27.896C83.9432 27.6707 83.5099 27.3153 83.1806 26.83C82.8686 26.3273 82.7126 25.6773 82.7126 24.88V17.054H80.9186V14.376H82.7126V9.956H86.1966V14.376H89.0566V17.054H86.1966V23.71C86.2139 24.178 86.3439 24.516 86.5866 24.724C86.8292 24.932 87.1326 25.036 87.4966 25.036C87.8606 25.036 88.2159 24.9753 88.5626 24.854C88.9092 24.7327 89.1866 24.6287 89.3946 24.542L90.0966 27.298ZM92.5611 22.904V14.376H96.0451V22.15C96.0451 23.19 96.2357 23.9787 96.6171 24.516C96.9984 25.036 97.5617 25.296 98.3071 25.296C98.7577 25.296 99.1997 25.2093 99.6331 25.036C100.084 24.8453 100.491 24.568 100.855 24.204C101.236 23.84 101.557 23.3807 101.817 22.826V14.376H105.301V24.1C105.301 24.464 105.362 24.724 105.483 24.88C105.622 25.036 105.838 25.1313 106.133 25.166V28C105.786 28.052 105.492 28.0867 105.249 28.104C105.024 28.1387 104.816 28.156 104.625 28.156C104.001 28.156 103.49 28.0173 103.091 27.74C102.71 27.4453 102.484 27.0467 102.415 26.544L102.337 25.452C101.73 26.3707 100.95 27.0727 99.9971 27.558C99.0437 28.026 97.9951 28.26 96.8511 28.26C95.4471 28.26 94.3811 27.8093 93.6531 26.908C92.9251 25.9893 92.5611 24.6547 92.5611 22.904ZM108.711 21.188C108.711 19.8707 108.971 18.6833 109.491 17.626C110.011 16.5513 110.731 15.702 111.649 15.078C112.568 14.454 113.617 14.142 114.795 14.142C115.801 14.142 116.702 14.3933 117.499 14.896C118.314 15.3813 118.947 16.0053 119.397 16.768V9.02H122.881V24.1C122.881 24.464 122.942 24.724 123.063 24.88C123.185 25.036 123.393 25.1313 123.687 25.166V28C123.081 28.1213 122.587 28.182 122.205 28.182C121.581 28.182 121.061 28.026 120.645 27.714C120.247 27.402 120.021 26.9947 119.969 26.492L119.917 25.634C119.415 26.4833 118.73 27.1333 117.863 27.584C117.014 28.0347 116.121 28.26 115.185 28.26C114.249 28.26 113.383 28.078 112.585 27.714C111.805 27.35 111.121 26.8473 110.531 26.206C109.959 25.5647 109.509 24.8193 109.179 23.97C108.867 23.1033 108.711 22.176 108.711 21.188ZM119.397 23.008V19.758C119.224 19.2553 118.947 18.8047 118.565 18.406C118.184 18.0073 117.759 17.6953 117.291 17.47C116.823 17.2273 116.355 17.106 115.887 17.106C115.35 17.106 114.865 17.2187 114.431 17.444C113.998 17.6693 113.617 17.9727 113.287 18.354C112.975 18.7353 112.733 19.1773 112.559 19.68C112.403 20.1827 112.325 20.7113 112.325 21.266C112.325 21.8207 112.412 22.3493 112.585 22.852C112.776 23.3373 113.045 23.762 113.391 24.126C113.738 24.49 114.137 24.776 114.587 24.984C115.055 25.192 115.558 25.296 116.095 25.296C116.425 25.296 116.754 25.244 117.083 25.14C117.43 25.0187 117.751 24.8627 118.045 24.672C118.357 24.464 118.626 24.2213 118.851 23.944C119.094 23.6493 119.276 23.3373 119.397 23.008ZM127.081 28V14.376H130.565V28H127.081ZM127.081 12.478V9.02H130.565V12.478H127.081ZM140.78 28.26C139.671 28.26 138.674 28.078 137.79 27.714C136.906 27.3327 136.152 26.8127 135.528 26.154C134.921 25.4953 134.453 24.7413 134.124 23.892C133.795 23.0427 133.63 22.15 133.63 21.214C133.63 20.2607 133.795 19.3593 134.124 18.51C134.453 17.6607 134.921 16.9067 135.528 16.248C136.152 15.5893 136.906 15.078 137.79 14.714C138.674 14.3327 139.671 14.142 140.78 14.142C141.889 14.142 142.877 14.3327 143.744 14.714C144.628 15.078 145.382 15.5893 146.006 16.248C146.63 16.9067 147.098 17.6607 147.41 18.51C147.739 19.3593 147.904 20.2607 147.904 21.214C147.904 22.15 147.739 23.0427 147.41 23.892C147.098 24.7413 146.63 25.4953 146.006 26.154C145.399 26.8127 144.654 27.3327 143.77 27.714C142.886 28.078 141.889 28.26 140.78 28.26ZM137.218 21.214C137.218 22.0113 137.374 22.722 137.686 23.346C137.998 23.9527 138.423 24.4293 138.96 24.776C139.497 25.1227 140.104 25.296 140.78 25.296C141.439 25.296 142.037 25.1227 142.574 24.776C143.111 24.412 143.536 23.9267 143.848 23.32C144.177 22.696 144.342 21.9853 144.342 21.188C144.342 20.408 144.177 19.706 143.848 19.082C143.536 18.458 143.111 17.9727 142.574 17.626C142.037 17.2793 141.439 17.106 140.78 17.106C140.104 17.106 139.497 17.288 138.96 17.652C138.423 17.9987 137.998 18.484 137.686 19.108C137.374 19.7147 137.218 20.4167 137.218 21.214Z" fill="black"/>
</g>
</g>
</g>
<defs>
<clipPath id="clip0_0_1">
<rect width="1600" height="2349" fill="white" transform="translate(-211 -20)"/>
</clipPath>
</defs>
</svg>
